<svg width="390" height="844" viewBox="0 0 390 844" fill="none" xmlns="http://www.w3.org/2000/svg">
<mask id="mask0_3_9" style="mask-type:luminance" maskUnits="userSpaceOnUse" x="0" y="0" width="390" height="844">
<path d="M390 0H0V844H390V0Z" fill="white"/>
</mask>
<g mask="url(#mask0_3_9)">
<path d="M390 0H0V844H390V0Z" fill="white"/>
<mask id="mask1_3_9" style="mask-type:luminance" maskUnits="userSpaceOnUse" x="0" y="0" width="390" height="844">
<path d="M390 0H0V844H390V0Z" fill="white"/>
</mask>
<g mask="url(#mask1_3_9)">
<path d="M390 0H0V844H390V0Z" fill="#00AF86"/>
<path d="M303.417 728.512C284.878 687.644 243.427 659.19 195.26 659.19C157.564 659.19 123.99 676.622 102.284 703.784C141.651 720.793 179.087 743.253 217.539 763.165C246.144 751.523 274.567 739.443 303.417 728.512Z" fill="#FFC300"/>
<path d="M365.096 706.974C344.256 713.001 323.852 720.158 303.654 727.881C274.77 738.926 246.321 751.132 217.697 762.896C240.409 774.766 263.471 785.75 287.497 794.16C295.739 797.048 303.638 799.637 311.262 801.959C368.09 819.299 409.258 821.521 456.988 814.868C460.326 803.945 462.129 792.35 462.129 780.334V689.932C429.326 691.628 396.409 697.915 365.096 706.966V706.974Z" fill="#018075"/>
<path d="M310.993 801.742C303.379 799.416 295.489 796.838 287.257 793.955C263.26 785.557 240.226 774.589 217.542 762.736C179.11 742.646 141.685 719.986 102.322 702.824C95.2262 699.728 88.077 696.814 80.8362 694.122C31.7833 675.893 -21.3974 665.733 -72.1289 672.498V780.149C-72.1289 845.172 -72.6637 897.883 -7.61845 897.883H389.895C442.938 897.883 441.793 862.829 456.542 814.632C408.87 821.275 367.753 819.056 310.993 801.742Z" fill="#005E5D"/>
<path d="M319 356H71C59.9543 356 51 364.954 51 376C51 387.046 59.9543 396 71 396H319C330.046 396 339 387.046 339 376C339 364.954 330.046 356 319 356Z" fill="#F9FBFA"/>
<path d="M172.08 381.14C170.568 381.14 169.168 380.636 167.992 379.572L169.028 378.34C169.98 379.166 170.904 379.614 172.122 379.614C173.186 379.614 173.858 379.11 173.858 378.382V378.354C173.858 377.668 173.466 377.262 171.646 376.856C169.56 376.366 168.384 375.722 168.384 373.93V373.902C168.384 372.222 169.784 371.06 171.73 371.06C173.172 371.06 174.278 371.494 175.286 372.292L174.362 373.594C173.466 372.936 172.598 372.586 171.702 372.586C170.694 372.586 170.106 373.09 170.106 373.748V373.776C170.106 374.532 170.554 374.868 172.444 375.316C174.502 375.848 175.58 376.548 175.58 378.186V378.214C175.58 380.062 174.138 381.14 172.08 381.14ZM177.437 372.474V370.864H179.257V372.474H177.437ZM177.493 381V373.608H179.201V381H177.493ZM184.705 383.268C183.473 383.268 182.367 382.974 181.401 382.386L182.031 381.112C182.829 381.602 183.655 381.882 184.663 381.882C186.175 381.882 187.001 381.126 187.001 379.628V379.068C186.385 379.852 185.615 380.412 184.397 380.412C182.647 380.412 181.037 379.124 181.037 376.954V376.926C181.037 374.742 182.661 373.454 184.397 373.454C185.643 373.454 186.413 374.028 186.987 374.714V373.608H188.681V379.488C188.681 380.72 188.373 381.644 187.743 382.274C187.071 382.946 186.049 383.268 184.705 383.268ZM184.845 378.97C186.021 378.97 187.015 378.144 187.015 376.94V376.912C187.015 375.722 186.021 374.896 184.845 374.896C183.669 374.896 182.745 375.694 182.745 376.912V376.94C182.745 378.144 183.683 378.97 184.845 378.97ZM190.793 381V373.608H192.501V374.742C192.991 374.056 193.649 373.454 194.811 373.454C196.491 373.454 197.443 374.56 197.443 376.282V381H195.749V376.8C195.749 375.638 195.175 374.994 194.167 374.994C193.173 374.994 192.501 375.666 192.501 376.828V381H190.793ZM207.9 381.154C205.366 381.154 203.728 379.684 203.728 376.842V371.2H205.45V376.772C205.45 378.606 206.374 379.558 207.928 379.558C209.454 379.558 210.392 378.648 210.392 376.842V371.2H212.114V376.758C212.114 379.684 210.462 381.154 207.9 381.154ZM214.268 383.24V373.608H215.976V374.84C216.522 374.07 217.278 373.454 218.496 373.454C220.232 373.454 221.926 374.826 221.926 377.29V377.318C221.926 379.782 220.246 381.154 218.496 381.154C217.264 381.154 216.494 380.538 215.976 379.852V383.24H214.268ZM218.09 379.684C219.252 379.684 220.204 378.774 220.204 377.318V377.29C220.204 375.862 219.224 374.924 218.09 374.924C216.928 374.924 215.934 375.876 215.934 377.29V377.318C215.934 378.732 216.928 379.684 218.09 379.684Z" fill="#005E5D"/>
<path d="M104.42 435L108.732 425.13H110.328L114.64 435H112.82L111.826 432.634H107.192L106.184 435H104.42ZM107.822 431.108H111.196L109.502 427.188L107.822 431.108ZM116.209 435V424.78H117.917V435H116.209ZM120.116 435V427.608H121.824V429.274C122.286 428.154 123.14 427.412 124.442 427.468V429.26H124.344C122.846 429.26 121.824 430.226 121.824 432.186V435H120.116ZM129.056 435.168C126.928 435.168 125.262 433.614 125.262 431.332V431.304C125.262 429.176 126.76 427.454 128.874 427.454C131.226 427.454 132.416 429.302 132.416 431.43C132.416 431.584 132.402 431.738 132.388 431.906H126.956C127.138 433.124 127.978 433.782 129.084 433.782C129.924 433.782 130.484 433.474 131.086 432.9L132.08 433.782C131.366 434.622 130.414 435.168 129.056 435.168ZM126.942 430.786H130.736C130.624 429.708 129.98 428.84 128.86 428.84C127.81 428.84 127.096 429.624 126.942 430.786ZM136.245 435.154C134.859 435.154 133.613 434.37 133.613 432.872V432.844C133.613 431.234 134.873 430.464 136.679 430.464C137.519 430.464 138.093 430.59 138.667 430.772V430.59C138.667 429.526 138.023 428.98 136.833 428.98C135.993 428.98 135.391 429.162 134.719 429.442L134.257 428.112C135.083 427.762 135.881 427.51 137.057 427.51C138.163 427.51 138.975 427.79 139.507 428.336C140.053 428.882 140.305 429.652 140.305 430.618V435H138.653V434.076C138.149 434.678 137.379 435.154 136.245 435.154ZM136.721 433.922C137.841 433.922 138.695 433.292 138.695 432.34V431.836C138.261 431.668 137.687 431.542 137.015 431.542C135.909 431.542 135.279 431.99 135.279 432.774V432.802C135.279 433.516 135.895 433.922 136.721 433.922ZM145.386 435.154C143.65 435.154 141.956 433.782 141.956 431.318V431.29C141.956 428.826 143.622 427.454 145.386 427.454C146.59 427.454 147.388 428.056 147.906 428.756V424.78H149.6V435H147.906V433.768C147.36 434.538 146.576 435.154 145.386 435.154ZM145.792 433.684C146.926 433.684 147.934 432.732 147.934 431.318V431.29C147.934 429.862 146.926 428.924 145.792 428.924C144.63 428.924 143.664 429.834 143.664 431.29V431.318C143.664 432.746 144.63 433.684 145.792 433.684ZM154.918 433.096L156.85 427.608H158.614L155.674 435.196C155.072 436.722 154.428 437.282 153.238 437.282C152.524 437.282 152.006 437.114 151.488 436.82L152.062 435.574C152.384 435.742 152.706 435.854 153.056 435.854C153.546 435.854 153.826 435.644 154.106 435.014L151.026 427.608H152.846L154.918 433.096ZM164.249 435V424.78H165.957V428.742C166.447 428.056 167.105 427.454 168.267 427.454C169.947 427.454 170.899 428.56 170.899 430.282V435H169.205V430.8C169.205 429.638 168.631 428.994 167.623 428.994C166.629 428.994 165.957 429.666 165.957 430.828V435H164.249ZM175.073 435.154C173.687 435.154 172.441 434.37 172.441 432.872V432.844C172.441 431.234 173.701 430.464 175.507 430.464C176.347 430.464 176.921 430.59 177.495 430.772V430.59C177.495 429.526 176.851 428.98 175.661 428.98C174.821 428.98 174.219 429.162 173.547 429.442L173.085 428.112C173.911 427.762 174.709 427.51 175.885 427.51C176.991 427.51 177.803 427.79 178.335 428.336C178.881 428.882 179.133 429.652 179.133 430.618V435H177.481V434.076C176.977 434.678 176.207 435.154 175.073 435.154ZM175.549 433.922C176.669 433.922 177.523 433.292 177.523 432.34V431.836C177.089 431.668 176.515 431.542 175.843 431.542C174.737 431.542 174.107 431.99 174.107 432.774V432.802C174.107 433.516 174.723 433.922 175.549 433.922ZM183.226 435.056L180.188 427.608H182.008L183.996 433.04L185.998 427.608H187.776L184.752 435.056H183.226ZM192.179 435.168C190.051 435.168 188.385 433.614 188.385 431.332V431.304C188.385 429.176 189.883 427.454 191.997 427.454C194.349 427.454 195.539 429.302 195.539 431.43C195.539 431.584 195.525 431.738 195.511 431.906H190.079C190.261 433.124 191.101 433.782 192.207 433.782C193.047 433.782 193.607 433.474 194.209 432.9L195.203 433.782C194.489 434.622 193.537 435.168 192.179 435.168ZM190.065 430.786H193.859C193.747 429.708 193.103 428.84 191.983 428.84C190.933 428.84 190.219 429.624 190.065 430.786ZM203.565 435.154C202.179 435.154 200.933 434.37 200.933 432.872V432.844C200.933 431.234 202.193 430.464 203.999 430.464C204.839 430.464 205.413 430.59 205.987 430.772V430.59C205.987 429.526 205.343 428.98 204.153 428.98C203.313 428.98 202.711 429.162 202.039 429.442L201.577 428.112C202.403 427.762 203.201 427.51 204.377 427.51C205.483 427.51 206.295 427.79 206.827 428.336C207.373 428.882 207.625 429.652 207.625 430.618V435H205.973V434.076C205.469 434.678 204.699 435.154 203.565 435.154ZM204.041 433.922C205.161 433.922 206.015 433.292 206.015 432.34V431.836C205.581 431.668 205.007 431.542 204.335 431.542C203.229 431.542 202.599 431.99 202.599 432.774V432.802C202.599 433.516 203.215 433.922 204.041 433.922ZM209.64 435V427.608H211.348V428.742C211.838 428.056 212.496 427.454 213.658 427.454C215.338 427.454 216.29 428.56 216.29 430.282V435H214.596V430.8C214.596 429.638 214.022 428.994 213.014 428.994C212.02 428.994 211.348 429.666 211.348 430.828V435H209.64ZM224.661 435.154C223.275 435.154 222.029 434.37 222.029 432.872V432.844C222.029 431.234 223.289 430.464 225.095 430.464C225.935 430.464 226.509 430.59 227.083 430.772V430.59C227.083 429.526 226.439 428.98 225.249 428.98C224.409 428.98 223.807 429.162 223.135 429.442L222.673 428.112C223.499 427.762 224.297 427.51 225.473 427.51C226.579 427.51 227.391 427.79 227.923 428.336C228.469 428.882 228.721 429.652 228.721 430.618V435H227.069V434.076C226.565 434.678 225.795 435.154 224.661 435.154ZM225.137 433.922C226.257 433.922 227.111 433.292 227.111 432.34V431.836C226.677 431.668 226.103 431.542 225.431 431.542C224.325 431.542 223.695 431.99 223.695 432.774V432.802C223.695 433.516 224.311 433.922 225.137 433.922ZM234.166 435.168C231.968 435.168 230.344 433.446 230.344 431.346V431.318C230.344 429.218 231.968 427.454 234.194 427.454C235.58 427.454 236.434 427.972 237.148 428.728L236.084 429.862C235.566 429.316 235.02 428.938 234.18 428.938C232.948 428.938 232.038 430.002 232.038 431.29V431.318C232.038 432.634 232.948 433.684 234.25 433.684C235.048 433.684 235.622 433.32 236.168 432.774L237.19 433.782C236.462 434.608 235.608 435.168 234.166 435.168ZM241.959 435.168C239.761 435.168 238.137 433.446 238.137 431.346V431.318C238.137 429.218 239.761 427.454 241.987 427.454C243.373 427.454 244.227 427.972 244.941 428.728L243.877 429.862C243.359 429.316 242.813 428.938 241.973 428.938C240.741 428.938 239.831 430.002 239.831 431.29V431.318C239.831 432.634 240.741 433.684 242.043 433.684C242.841 433.684 243.415 433.32 243.961 432.774L244.983 433.782C244.255 434.608 243.401 435.168 241.959 435.168ZM249.849 435.168C247.595 435.168 245.929 433.446 245.929 431.346V431.318C245.929 429.204 247.609 427.454 249.877 427.454C252.159 427.454 253.811 429.176 253.811 431.29V431.318C253.811 433.404 252.131 435.168 249.849 435.168ZM249.877 433.684C251.263 433.684 252.117 432.62 252.117 431.346V431.318C252.117 430.016 251.179 428.938 249.849 428.938C248.491 428.938 247.623 430.002 247.623 431.29V431.318C247.623 432.606 248.575 433.684 249.877 433.684ZM258.085 435.154C256.405 435.154 255.453 434.048 255.453 432.312V427.608H257.147V431.808C257.147 432.97 257.721 433.6 258.729 433.6C259.723 433.6 260.395 432.942 260.395 431.78V427.608H262.103V435H260.395V433.852C259.905 434.566 259.219 435.154 258.085 435.154ZM264.204 435V427.608H265.912V428.742C266.402 428.056 267.06 427.454 268.222 427.454C269.902 427.454 270.854 428.56 270.854 430.282V435H269.16V430.8C269.16 429.638 268.586 428.994 267.578 428.994C266.584 428.994 265.912 429.666 265.912 430.828V435H264.204ZM275.378 435.126C274.132 435.126 273.25 434.58 273.25 432.956V429.064H272.312V427.608H273.25V425.578H274.944V427.608H276.932V429.064H274.944V432.69C274.944 433.348 275.28 433.614 275.854 433.614C276.218 433.614 276.568 433.53 276.904 433.362V434.748C276.47 434.986 276.036 435.126 275.378 435.126ZM280.49 431.892L280.21 429.624L280.28 429.554C282.072 429.498 282.856 428.938 282.856 428V427.972C282.856 427.188 282.268 426.642 281.26 426.642C280.364 426.642 279.65 427.034 278.978 427.748L277.928 426.628C278.754 425.69 279.79 425.074 281.302 425.074C283.262 425.074 284.592 426.166 284.592 427.916V427.944C284.592 429.722 283.318 430.52 281.764 430.772L281.624 431.892H280.49ZM280.084 435V433.068H281.96V435H280.084Z" fill="#F9FBFA"/>
<path d="M175.511 473.14C173.999 473.14 172.599 472.636 171.423 471.572L172.459 470.34C173.411 471.166 174.335 471.614 175.553 471.614C176.617 471.614 177.289 471.11 177.289 470.382V470.354C177.289 469.668 176.897 469.262 175.077 468.856C172.991 468.366 171.815 467.722 171.815 465.93V465.902C171.815 464.222 173.215 463.06 175.161 463.06C176.603 463.06 177.709 463.494 178.717 464.292L177.793 465.594C176.897 464.936 176.029 464.586 175.133 464.586C174.125 464.586 173.537 465.09 173.537 465.748V465.776C173.537 466.532 173.985 466.868 175.875 467.316C177.933 467.848 179.011 468.548 179.011 470.186V470.214C179.011 472.062 177.569 473.14 175.511 473.14ZM180.868 464.474V462.864H182.688V464.474H180.868ZM180.924 473V465.608H182.632V473H180.924ZM188.136 475.268C186.904 475.268 185.798 474.974 184.832 474.386L185.462 473.112C186.26 473.602 187.086 473.882 188.094 473.882C189.606 473.882 190.432 473.126 190.432 471.628V471.068C189.816 471.852 189.046 472.412 187.828 472.412C186.078 472.412 184.468 471.124 184.468 468.954V468.926C184.468 466.742 186.092 465.454 187.828 465.454C189.074 465.454 189.844 466.028 190.418 466.714V465.608H192.112V471.488C192.112 472.72 191.804 473.644 191.174 474.274C190.502 474.946 189.48 475.268 188.136 475.268ZM188.276 470.97C189.452 470.97 190.446 470.144 190.446 468.94V468.912C190.446 467.722 189.452 466.896 188.276 466.896C187.1 466.896 186.176 467.694 186.176 468.912V468.94C186.176 470.144 187.114 470.97 188.276 470.97ZM194.225 473V465.608H195.933V466.742C196.423 466.056 197.081 465.454 198.243 465.454C199.923 465.454 200.875 466.56 200.875 468.282V473H199.181V468.8C199.181 467.638 198.607 466.994 197.599 466.994C196.605 466.994 195.933 467.666 195.933 468.828V473H194.225ZM207.412 473V463.2H209.134V473H207.412ZM211.547 473V465.608H213.255V466.742C213.745 466.056 214.403 465.454 215.565 465.454C217.245 465.454 218.197 466.56 218.197 468.282V473H216.503V468.8C216.503 467.638 215.929 466.994 214.921 466.994C213.927 466.994 213.255 467.666 213.255 468.828V473H211.547Z" fill="#F9FBFA"/>
<path d="M319 448.5H71C60.2304 448.5 51.5 457.23 51.5 468C51.5 478.77 60.2304 487.5 71 487.5H319C329.77 487.5 338.5 478.77 338.5 468C338.5 457.23 329.77 448.5 319 448.5Z" stroke="#F9FBFA"/>
<path d="M88.654 267V258.796H85.532V257.2H93.498V258.796H90.376V267H88.654ZM94.9641 267V256.78H96.6721V260.742C97.1621 260.056 97.8201 259.454 98.9821 259.454C100.662 259.454 101.614 260.56 101.614 262.282V267H99.9201V262.8C99.9201 261.638 99.3461 260.994 98.3381 260.994C97.3441 260.994 96.6721 261.666 96.6721 262.828V267H94.9641ZM107.048 267.168C104.92 267.168 103.254 265.614 103.254 263.332V263.304C103.254 261.176 104.752 259.454 106.866 259.454C109.218 259.454 110.408 261.302 110.408 263.43C110.408 263.584 110.394 263.738 110.38 263.906H104.948C105.13 265.124 105.97 265.782 107.076 265.782C107.916 265.782 108.476 265.474 109.078 264.9L110.072 265.782C109.358 266.622 108.406 267.168 107.048 267.168ZM104.934 262.786H108.728C108.616 261.708 107.972 260.84 106.852 260.84C105.802 260.84 105.088 261.624 104.934 262.786ZM118.854 267.154C117.174 267.154 116.222 266.048 116.222 264.312V259.608H117.916V263.808C117.916 264.97 118.49 265.6 119.498 265.6C120.492 265.6 121.164 264.942 121.164 263.78V259.608H122.872V267H121.164V265.852C120.674 266.566 119.988 267.154 118.854 267.154ZM125.072 267V256.78H126.78V267H125.072ZM131.472 267.126C130.226 267.126 129.344 266.58 129.344 264.956V261.064H128.406V259.608H129.344V257.578H131.038V259.608H133.026V261.064H131.038V264.69C131.038 265.348 131.374 265.614 131.948 265.614C132.312 265.614 132.662 265.53 132.998 265.362V266.748C132.564 266.986 132.13 267.126 131.472 267.126ZM134.778 258.474V256.864H136.598V258.474H134.778ZM134.834 267V259.608H136.542V267H134.834ZM138.741 267V259.608H140.449V260.728C140.925 260.07 141.569 259.454 142.703 259.454C143.767 259.454 144.523 259.972 144.915 260.756C145.517 259.972 146.287 259.454 147.407 259.454C149.031 259.454 149.997 260.476 149.997 262.282V267H148.303V262.8C148.303 261.624 147.757 260.994 146.805 260.994C145.867 260.994 145.223 261.638 145.223 262.828V267H143.529V262.786C143.529 261.624 142.983 260.994 142.031 260.994C141.079 260.994 140.449 261.694 140.449 262.828V267H138.741ZM154.172 267.154C152.786 267.154 151.54 266.37 151.54 264.872V264.844C151.54 263.234 152.8 262.464 154.606 262.464C155.446 262.464 156.02 262.59 156.594 262.772V262.59C156.594 261.526 155.95 260.98 154.76 260.98C153.92 260.98 153.318 261.162 152.646 261.442L152.184 260.112C153.01 259.762 153.808 259.51 154.984 259.51C156.09 259.51 156.902 259.79 157.434 260.336C157.98 260.882 158.232 261.652 158.232 262.618V267H156.58V266.076C156.076 266.678 155.306 267.154 154.172 267.154ZM154.648 265.922C155.768 265.922 156.622 265.292 156.622 264.34V263.836C156.188 263.668 155.614 263.542 154.942 263.542C153.836 263.542 153.206 263.99 153.206 264.774V264.802C153.206 265.516 153.822 265.922 154.648 265.922ZM162.671 267.126C161.425 267.126 160.543 266.58 160.543 264.956V261.064H159.605V259.608H160.543V257.578H162.237V259.608H164.225V261.064H162.237V264.69C162.237 265.348 162.573 265.614 163.147 265.614C163.511 265.614 163.861 265.53 164.197 265.362V266.748C163.763 266.986 163.329 267.126 162.671 267.126ZM169.132 267.168C167.004 267.168 165.338 265.614 165.338 263.332V263.304C165.338 261.176 166.836 259.454 168.95 259.454C171.302 259.454 172.492 261.302 172.492 263.43C172.492 263.584 172.478 263.738 172.464 263.906H167.032C167.214 265.124 168.054 265.782 169.16 265.782C170 265.782 170.56 265.474 171.162 264.9L172.156 265.782C171.442 266.622 170.49 267.168 169.132 267.168ZM167.018 262.786H170.812C170.7 261.708 170.056 260.84 168.936 260.84C167.886 260.84 167.172 261.624 167.018 262.786ZM180.868 267.126C179.622 267.126 178.74 266.58 178.74 264.956V261.064H177.802V259.608H178.74V257.578H180.434V259.608H182.422V261.064H180.434V264.69C180.434 265.348 180.77 265.614 181.344 265.614C181.708 265.614 182.058 265.53 182.394 265.362V266.748C181.96 266.986 181.526 267.126 180.868 267.126ZM184.132 267V259.608H185.84V261.274C186.302 260.154 187.156 259.412 188.458 259.468V261.26H188.36C186.862 261.26 185.84 262.226 185.84 264.186V267H184.132ZM191.702 267.154C190.316 267.154 189.07 266.37 189.07 264.872V264.844C189.07 263.234 190.33 262.464 192.136 262.464C192.976 262.464 193.55 262.59 194.124 262.772V262.59C194.124 261.526 193.48 260.98 192.29 260.98C191.45 260.98 190.848 261.162 190.176 261.442L189.714 260.112C190.54 259.762 191.338 259.51 192.514 259.51C193.62 259.51 194.432 259.79 194.964 260.336C195.51 260.882 195.762 261.652 195.762 262.618V267H194.11V266.076C193.606 266.678 192.836 267.154 191.702 267.154ZM192.178 265.922C193.298 265.922 194.152 265.292 194.152 264.34V263.836C193.718 263.668 193.144 263.542 192.472 263.542C191.366 263.542 190.736 263.99 190.736 264.774V264.802C190.736 265.516 191.352 265.922 192.178 265.922ZM199.855 267.056L196.817 259.608H198.637L200.625 265.04L202.627 259.608H204.405L201.381 267.056H199.855ZM208.807 267.168C206.679 267.168 205.013 265.614 205.013 263.332V263.304C205.013 261.176 206.511 259.454 208.625 259.454C210.977 259.454 212.167 261.302 212.167 263.43C212.167 263.584 212.153 263.738 212.139 263.906H206.707C206.889 265.124 207.729 265.782 208.835 265.782C209.675 265.782 210.235 265.474 210.837 264.9L211.831 265.782C211.117 266.622 210.165 267.168 208.807 267.168ZM206.693 262.786H210.487C210.375 261.708 209.731 260.84 208.611 260.84C207.561 260.84 206.847 261.624 206.693 262.786ZM213.953 267V256.78H215.661V267H213.953ZM225.488 267.168C223.29 267.168 221.666 265.446 221.666 263.346V263.318C221.666 261.218 223.29 259.454 225.516 259.454C226.902 259.454 227.756 259.972 228.47 260.728L227.406 261.862C226.888 261.316 226.342 260.938 225.502 260.938C224.27 260.938 223.36 262.002 223.36 263.29V263.318C223.36 264.634 224.27 265.684 225.572 265.684C226.37 265.684 226.944 265.32 227.49 264.774L228.512 265.782C227.784 266.608 226.93 267.168 225.488 267.168ZM233.379 267.168C231.125 267.168 229.459 265.446 229.459 263.346V263.318C229.459 261.204 231.139 259.454 233.407 259.454C235.689 259.454 237.341 261.176 237.341 263.29V263.318C237.341 265.404 235.661 267.168 233.379 267.168ZM233.407 265.684C234.793 265.684 235.647 264.62 235.647 263.346V263.318C235.647 262.016 234.709 260.938 233.379 260.938C232.021 260.938 231.153 262.002 231.153 263.29V263.318C231.153 264.606 232.105 265.684 233.407 265.684ZM239.052 267V259.608H240.76V260.728C241.236 260.07 241.88 259.454 243.014 259.454C244.078 259.454 244.834 259.972 245.226 260.756C245.828 259.972 246.598 259.454 247.718 259.454C249.342 259.454 250.308 260.476 250.308 262.282V267H248.614V262.8C248.614 261.624 248.068 260.994 247.116 260.994C246.178 260.994 245.534 261.638 245.534 262.828V267H243.84V262.786C243.84 261.624 243.294 260.994 242.342 260.994C241.39 260.994 240.76 261.694 240.76 262.828V267H239.052ZM252.341 269.24V259.608H254.049V260.84C254.595 260.07 255.351 259.454 256.569 259.454C258.305 259.454 259.999 260.826 259.999 263.29V263.318C259.999 265.782 258.319 267.154 256.569 267.154C255.337 267.154 254.567 266.538 254.049 265.852V269.24H252.341ZM256.163 265.684C257.325 265.684 258.277 264.774 258.277 263.318V263.29C258.277 261.862 257.297 260.924 256.163 260.924C255.001 260.924 254.007 261.876 254.007 263.29V263.318C254.007 264.732 255.001 265.684 256.163 265.684ZM263.876 267.154C262.49 267.154 261.244 266.37 261.244 264.872V264.844C261.244 263.234 262.504 262.464 264.31 262.464C265.15 262.464 265.724 262.59 266.298 262.772V262.59C266.298 261.526 265.654 260.98 264.464 260.98C263.624 260.98 263.022 261.162 262.35 261.442L261.888 260.112C262.714 259.762 263.512 259.51 264.688 259.51C265.794 259.51 266.606 259.79 267.138 260.336C267.684 260.882 267.936 261.652 267.936 262.618V267H266.284V266.076C265.78 266.678 265.01 267.154 263.876 267.154ZM264.352 265.922C265.472 265.922 266.326 265.292 266.326 264.34V263.836C265.892 263.668 265.318 263.542 264.646 263.542C263.54 263.542 262.91 263.99 262.91 264.774V264.802C262.91 265.516 263.526 265.922 264.352 265.922ZM269.95 267V259.608H271.658V260.742C272.148 260.056 272.806 259.454 273.968 259.454C275.648 259.454 276.6 260.56 276.6 262.282V267H274.906V262.8C274.906 261.638 274.332 260.994 273.324 260.994C272.33 260.994 271.658 261.666 271.658 262.828V267H269.95ZM278.674 258.474V256.864H280.494V258.474H278.674ZM278.73 267V259.608H280.438V267H278.73ZM286.166 267.168C283.912 267.168 282.246 265.446 282.246 263.346V263.318C282.246 261.204 283.926 259.454 286.194 259.454C288.476 259.454 290.128 261.176 290.128 263.29V263.318C290.128 265.404 288.448 267.168 286.166 267.168ZM286.194 265.684C287.58 265.684 288.434 264.62 288.434 263.346V263.318C288.434 262.016 287.496 260.938 286.166 260.938C284.808 260.938 283.94 262.002 283.94 263.29V263.318C283.94 264.606 284.892 265.684 286.194 265.684ZM291.839 267V259.608H293.547V260.742C294.037 260.056 294.695 259.454 295.857 259.454C297.537 259.454 298.489 260.56 298.489 262.282V267H296.795V262.8C296.795 261.638 296.221 260.994 295.213 260.994C294.219 260.994 293.547 261.666 293.547 262.828V267H291.839Z" fill="#F9FBFA"/>
</g>
<path d="M133.132 175.076L143.904 144.253L154.752 175.076H167.751L185.753 121.154H170.288L160.903 152.127L150.517 121H137.673L127.287 152.127L117.902 121.154H102.13L120.133 175.076H133.132Z" fill="white"/>
<path d="M206.979 121.155H191.98V174.692H206.979V121.155Z" fill="white"/>
<path d="M267.138 174.692L246.06 144.174L266.449 121.155H248.753L230.212 142.875V121.155H215.289V174.692H230.212V160.849L235.678 154.805L249.215 174.692H267.138Z" fill="white"/>
<path d="M286.758 121.155H271.755V174.692H286.758V121.155Z" fill="white"/>
<path d="M83.3664 224.462C75.8291 224.462 70.5187 218.192 70.5187 210.16V210.006C70.5187 202.203 75.8291 195.858 83.3664 195.858C88.5214 195.858 92.059 198.306 95.1345 202.128L106.365 193.485C101.596 186.907 94.517 182.32 83.5178 182.32C67.2082 182.32 55.1294 194.559 55.1294 210.16V210.315C55.1294 226.3 67.515 238 82.9003 238C94.8237 238 101.672 232.875 106.747 225.916L95.5169 217.963C92.2861 221.864 88.9795 224.462 83.3624 224.462H83.3664Z" fill="white"/>
<path d="M202.441 204.12L189.594 183.389H173.822V236.931H188.438V206.338L202.131 227.14H202.441L216.209 206.183V236.931H231.057V183.389H215.289L202.441 204.12Z" fill="white"/>
<path d="M262.134 183.389H239.056V236.927H253.98V221.63H261.366C274.751 221.63 284.519 214.976 284.519 202.357V202.203C284.519 190.348 275.751 183.389 262.134 183.389ZM269.596 203.047C269.596 207.253 266.365 210.006 261.059 210.006H253.98V195.858H260.979C266.365 195.858 269.596 198.306 269.596 202.892V203.047Z" fill="white"/>
<path d="M313.677 203.585C306.215 201.902 304.366 200.833 304.366 198.385V198.23C304.366 196.317 306.135 194.789 309.752 194.789C314.521 194.789 319.907 196.622 324.831 200.064L332.293 189.588C326.445 184.922 319.29 182.475 310.139 182.475C297.216 182.475 289.292 189.663 289.292 199.605V199.759C289.292 210.774 298.14 213.986 309.601 216.584C316.911 218.268 318.68 219.492 318.68 221.71V221.864C318.68 224.157 316.525 225.536 312.525 225.536C306.295 225.536 300.371 223.318 295.06 219.111L286.754 228.978C293.371 234.867 302.446 237.85 311.987 237.85C325.066 237.85 333.759 231.35 333.759 220.41V220.256C333.759 210.235 326.066 206.259 313.681 203.581L313.677 203.585Z" fill="white"/>
<path d="M131.283 183.009L108.357 236.931H124.053L127.897 227.369L132.283 215.82L138.359 200.599L144.362 215.82L148.669 227.369L152.593 236.931H168.591L145.669 183.009H131.283Z" fill="white"/>
<path d="M335 182.06H55V175.494H335V182.06Z" fill="#00AF86"/>
</g>
</svg>
