<svg width="390" height="844" viewBox="0 0 390 844" fill="none" xmlns="http://www.w3.org/2000/svg">
<g clip-path="url(#clip0_3_8)">
<mask id="mask0_3_8" style="mask-type:luminance" maskUnits="userSpaceOnUse" x="0" y="0" width="390" height="844">
<path d="M390 0H0V844H390V0Z" fill="white"/>
</mask>
<g mask="url(#mask0_3_8)">
<path d="M390 0H0V844H390V0Z" fill="white"/>
<mask id="mask1_3_8" style="mask-type:luminance" maskUnits="userSpaceOnUse" x="0" y="0" width="390" height="844">
<path d="M390 0H0V844H390V0Z" fill="white"/>
</mask>
<g mask="url(#mask1_3_8)">
<path d="M390 0H0V844H390V0Z" fill="#00AF86"/>
<path d="M303.417 728.512C284.878 687.644 243.427 659.19 195.26 659.19C157.564 659.19 123.99 676.622 102.284 703.784C141.651 720.793 179.087 743.253 217.539 763.165C246.144 751.523 274.567 739.443 303.417 728.512Z" fill="#FFC300"/>
<path d="M365.096 706.974C344.256 713.001 323.852 720.158 303.654 727.881C274.77 738.926 246.321 751.132 217.697 762.896C240.409 774.766 263.471 785.75 287.497 794.16C295.739 797.048 303.638 799.637 311.262 801.959C368.09 819.299 409.258 821.521 456.988 814.868C460.326 803.945 462.129 792.35 462.129 780.334V689.932C429.326 691.628 396.409 697.915 365.096 706.966V706.974Z" fill="#018075"/>
<path d="M310.993 801.742C303.379 799.416 295.489 796.838 287.257 793.955C263.26 785.557 240.226 774.589 217.542 762.736C179.11 742.646 141.685 719.986 102.322 702.824C95.2262 699.728 88.077 696.814 80.8362 694.122C31.7833 675.893 -21.3974 665.733 -72.1289 672.498V780.149C-72.1289 845.172 -72.6637 897.883 -7.61844 897.883H389.895C442.938 897.883 441.793 862.829 456.542 814.632C408.87 821.275 367.753 819.056 310.993 801.742Z" fill="#005E5D"/>
<path d="M88.654 267V258.796H85.532V257.2H93.498V258.796H90.376V267H88.654ZM94.9641 267V256.78H96.6721V260.742C97.1621 260.056 97.8201 259.454 98.9821 259.454C100.662 259.454 101.614 260.56 101.614 262.282V267H99.9201V262.8C99.9201 261.638 99.3461 260.994 98.3381 260.994C97.3441 260.994 96.6721 261.666 96.6721 262.828V267H94.9641ZM107.048 267.168C104.92 267.168 103.254 265.614 103.254 263.332V263.304C103.254 261.176 104.752 259.454 106.866 259.454C109.218 259.454 110.408 261.302 110.408 263.43C110.408 263.584 110.394 263.738 110.38 263.906H104.948C105.13 265.124 105.97 265.782 107.076 265.782C107.916 265.782 108.476 265.474 109.078 264.9L110.072 265.782C109.358 266.622 108.406 267.168 107.048 267.168ZM104.934 262.786H108.728C108.616 261.708 107.972 260.84 106.852 260.84C105.802 260.84 105.088 261.624 104.934 262.786ZM118.854 267.154C117.174 267.154 116.222 266.048 116.222 264.312V259.608H117.916V263.808C117.916 264.97 118.49 265.6 119.498 265.6C120.492 265.6 121.164 264.942 121.164 263.78V259.608H122.872V267H121.164V265.852C120.674 266.566 119.988 267.154 118.854 267.154ZM125.072 267V256.78H126.78V267H125.072ZM131.472 267.126C130.226 267.126 129.344 266.58 129.344 264.956V261.064H128.406V259.608H129.344V257.578H131.038V259.608H133.026V261.064H131.038V264.69C131.038 265.348 131.374 265.614 131.948 265.614C132.312 265.614 132.662 265.53 132.998 265.362V266.748C132.564 266.986 132.13 267.126 131.472 267.126ZM134.778 258.474V256.864H136.598V258.474H134.778ZM134.834 267V259.608H136.542V267H134.834ZM138.741 267V259.608H140.449V260.728C140.925 260.07 141.569 259.454 142.703 259.454C143.767 259.454 144.523 259.972 144.915 260.756C145.517 259.972 146.287 259.454 147.407 259.454C149.031 259.454 149.997 260.476 149.997 262.282V267H148.303V262.8C148.303 261.624 147.757 260.994 146.805 260.994C145.867 260.994 145.223 261.638 145.223 262.828V267H143.529V262.786C143.529 261.624 142.983 260.994 142.031 260.994C141.079 260.994 140.449 261.694 140.449 262.828V267H138.741ZM154.172 267.154C152.786 267.154 151.54 266.37 151.54 264.872V264.844C151.54 263.234 152.8 262.464 154.606 262.464C155.446 262.464 156.02 262.59 156.594 262.772V262.59C156.594 261.526 155.95 260.98 154.76 260.98C153.92 260.98 153.318 261.162 152.646 261.442L152.184 260.112C153.01 259.762 153.808 259.51 154.984 259.51C156.09 259.51 156.902 259.79 157.434 260.336C157.98 260.882 158.232 261.652 158.232 262.618V267H156.58V266.076C156.076 266.678 155.306 267.154 154.172 267.154ZM154.648 265.922C155.768 265.922 156.622 265.292 156.622 264.34V263.836C156.188 263.668 155.614 263.542 154.942 263.542C153.836 263.542 153.206 263.99 153.206 264.774V264.802C153.206 265.516 153.822 265.922 154.648 265.922ZM162.671 267.126C161.425 267.126 160.543 266.58 160.543 264.956V261.064H159.605V259.608H160.543V257.578H162.237V259.608H164.225V261.064H162.237V264.69C162.237 265.348 162.573 265.614 163.147 265.614C163.511 265.614 163.861 265.53 164.197 265.362V266.748C163.763 266.986 163.329 267.126 162.671 267.126ZM169.132 267.168C167.004 267.168 165.338 265.614 165.338 263.332V263.304C165.338 261.176 166.836 259.454 168.95 259.454C171.302 259.454 172.492 261.302 172.492 263.43C172.492 263.584 172.478 263.738 172.464 263.906H167.032C167.214 265.124 168.054 265.782 169.16 265.782C170 265.782 170.56 265.474 171.162 264.9L172.156 265.782C171.442 266.622 170.49 267.168 169.132 267.168ZM167.018 262.786H170.812C170.7 261.708 170.056 260.84 168.936 260.84C167.886 260.84 167.172 261.624 167.018 262.786ZM180.868 267.126C179.622 267.126 178.74 266.58 178.74 264.956V261.064H177.802V259.608H178.74V257.578H180.434V259.608H182.422V261.064H180.434V264.69C180.434 265.348 180.77 265.614 181.344 265.614C181.708 265.614 182.058 265.53 182.394 265.362V266.748C181.96 266.986 181.526 267.126 180.868 267.126ZM184.132 267V259.608H185.84V261.274C186.302 260.154 187.156 259.412 188.458 259.468V261.26H188.36C186.862 261.26 185.84 262.226 185.84 264.186V267H184.132ZM191.702 267.154C190.316 267.154 189.07 266.37 189.07 264.872V264.844C189.07 263.234 190.33 262.464 192.136 262.464C192.976 262.464 193.55 262.59 194.124 262.772V262.59C194.124 261.526 193.48 260.98 192.29 260.98C191.45 260.98 190.848 261.162 190.176 261.442L189.714 260.112C190.54 259.762 191.338 259.51 192.514 259.51C193.62 259.51 194.432 259.79 194.964 260.336C195.51 260.882 195.762 261.652 195.762 262.618V267H194.11V266.076C193.606 266.678 192.836 267.154 191.702 267.154ZM192.178 265.922C193.298 265.922 194.152 265.292 194.152 264.34V263.836C193.718 263.668 193.144 263.542 192.472 263.542C191.366 263.542 190.736 263.99 190.736 264.774V264.802C190.736 265.516 191.352 265.922 192.178 265.922ZM199.855 267.056L196.817 259.608H198.637L200.625 265.04L202.627 259.608H204.405L201.381 267.056H199.855ZM208.807 267.168C206.679 267.168 205.013 265.614 205.013 263.332V263.304C205.013 261.176 206.511 259.454 208.625 259.454C210.977 259.454 212.167 261.302 212.167 263.43C212.167 263.584 212.153 263.738 212.139 263.906H206.707C206.889 265.124 207.729 265.782 208.835 265.782C209.675 265.782 210.235 265.474 210.837 264.9L211.831 265.782C211.117 266.622 210.165 267.168 208.807 267.168ZM206.693 262.786H210.487C210.375 261.708 209.731 260.84 208.611 260.84C207.561 260.84 206.847 261.624 206.693 262.786ZM213.953 267V256.78H215.661V267H213.953ZM225.488 267.168C223.29 267.168 221.666 265.446 221.666 263.346V263.318C221.666 261.218 223.29 259.454 225.516 259.454C226.902 259.454 227.756 259.972 228.47 260.728L227.406 261.862C226.888 261.316 226.342 260.938 225.502 260.938C224.27 260.938 223.36 262.002 223.36 263.29V263.318C223.36 264.634 224.27 265.684 225.572 265.684C226.37 265.684 226.944 265.32 227.49 264.774L228.512 265.782C227.784 266.608 226.93 267.168 225.488 267.168ZM233.379 267.168C231.125 267.168 229.459 265.446 229.459 263.346V263.318C229.459 261.204 231.139 259.454 233.407 259.454C235.689 259.454 237.341 261.176 237.341 263.29V263.318C237.341 265.404 235.661 267.168 233.379 267.168ZM233.407 265.684C234.793 265.684 235.647 264.62 235.647 263.346V263.318C235.647 262.016 234.709 260.938 233.379 260.938C232.021 260.938 231.153 262.002 231.153 263.29V263.318C231.153 264.606 232.105 265.684 233.407 265.684ZM239.052 267V259.608H240.76V260.728C241.236 260.07 241.88 259.454 243.014 259.454C244.078 259.454 244.834 259.972 245.226 260.756C245.828 259.972 246.598 259.454 247.718 259.454C249.342 259.454 250.308 260.476 250.308 262.282V267H248.614V262.8C248.614 261.624 248.068 260.994 247.116 260.994C246.178 260.994 245.534 261.638 245.534 262.828V267H243.84V262.786C243.84 261.624 243.294 260.994 242.342 260.994C241.39 260.994 240.76 261.694 240.76 262.828V267H239.052ZM252.341 269.24V259.608H254.049V260.84C254.595 260.07 255.351 259.454 256.569 259.454C258.305 259.454 259.999 260.826 259.999 263.29V263.318C259.999 265.782 258.319 267.154 256.569 267.154C255.337 267.154 254.567 266.538 254.049 265.852V269.24H252.341ZM256.163 265.684C257.325 265.684 258.277 264.774 258.277 263.318V263.29C258.277 261.862 257.297 260.924 256.163 260.924C255.001 260.924 254.007 261.876 254.007 263.29V263.318C254.007 264.732 255.001 265.684 256.163 265.684ZM263.876 267.154C262.49 267.154 261.244 266.37 261.244 264.872V264.844C261.244 263.234 262.504 262.464 264.31 262.464C265.15 262.464 265.724 262.59 266.298 262.772V262.59C266.298 261.526 265.654 260.98 264.464 260.98C263.624 260.98 263.022 261.162 262.35 261.442L261.888 260.112C262.714 259.762 263.512 259.51 264.688 259.51C265.794 259.51 266.606 259.79 267.138 260.336C267.684 260.882 267.936 261.652 267.936 262.618V267H266.284V266.076C265.78 266.678 265.01 267.154 263.876 267.154ZM264.352 265.922C265.472 265.922 266.326 265.292 266.326 264.34V263.836C265.892 263.668 265.318 263.542 264.646 263.542C263.54 263.542 262.91 263.99 262.91 264.774V264.802C262.91 265.516 263.526 265.922 264.352 265.922ZM269.95 267V259.608H271.658V260.742C272.148 260.056 272.806 259.454 273.968 259.454C275.648 259.454 276.6 260.56 276.6 262.282V267H274.906V262.8C274.906 261.638 274.332 260.994 273.324 260.994C272.33 260.994 271.658 261.666 271.658 262.828V267H269.95ZM278.674 258.474V256.864H280.494V258.474H278.674ZM278.73 267V259.608H280.438V267H278.73ZM286.166 267.168C283.912 267.168 282.246 265.446 282.246 263.346V263.318C282.246 261.204 283.926 259.454 286.194 259.454C288.476 259.454 290.128 261.176 290.128 263.29V263.318C290.128 265.404 288.448 267.168 286.166 267.168ZM286.194 265.684C287.58 265.684 288.434 264.62 288.434 263.346V263.318C288.434 262.016 287.496 260.938 286.166 260.938C284.808 260.938 283.94 262.002 283.94 263.29V263.318C283.94 264.606 284.892 265.684 286.194 265.684ZM291.839 267V259.608H293.547V260.742C294.037 260.056 294.695 259.454 295.857 259.454C297.537 259.454 298.489 260.56 298.489 262.282V267H296.795V262.8C296.795 261.638 296.221 260.994 295.213 260.994C294.219 260.994 293.547 261.666 293.547 262.828V267H291.839Z" fill="#F9FBFA"/>
</g>
<path d="M133.132 175.076L143.904 144.253L154.752 175.076H167.751L185.753 121.154H170.288L160.903 152.127L150.517 121H137.673L127.287 152.127L117.902 121.154H102.13L120.133 175.076H133.132Z" fill="white"/>
<path d="M206.979 121.155H191.98V174.692H206.979V121.155Z" fill="white"/>
<path d="M267.138 174.692L246.06 144.174L266.449 121.155H248.753L230.212 142.875V121.155H215.289V174.692H230.212V160.849L235.678 154.805L249.215 174.692H267.138Z" fill="white"/>
<path d="M286.758 121.155H271.755V174.692H286.758V121.155Z" fill="white"/>
<path d="M83.3664 224.462C75.8291 224.462 70.5187 218.192 70.5187 210.16V210.006C70.5187 202.203 75.8291 195.858 83.3664 195.858C88.5214 195.858 92.059 198.306 95.1345 202.128L106.365 193.485C101.596 186.907 94.517 182.32 83.5178 182.32C67.2082 182.32 55.1294 194.559 55.1294 210.16V210.315C55.1294 226.3 67.515 238 82.9003 238C94.8237 238 101.672 232.875 106.747 225.916L95.5169 217.963C92.2861 221.864 88.9795 224.462 83.3624 224.462H83.3664Z" fill="white"/>
<path d="M202.441 204.12L189.594 183.389H173.822V236.931H188.438V206.338L202.131 227.14H202.441L216.209 206.183V236.931H231.057V183.389H215.289L202.441 204.12Z" fill="white"/>
<path d="M262.134 183.389H239.056V236.927H253.98V221.63H261.366C274.751 221.63 284.519 214.976 284.519 202.357V202.203C284.519 190.348 275.751 183.389 262.134 183.389ZM269.596 203.047C269.596 207.253 266.365 210.006 261.059 210.006H253.98V195.858H260.979C266.365 195.858 269.596 198.306 269.596 202.892V203.047Z" fill="white"/>
<path d="M313.677 203.585C306.215 201.902 304.366 200.833 304.366 198.385V198.23C304.366 196.317 306.135 194.789 309.752 194.789C314.521 194.789 319.907 196.622 324.831 200.064L332.293 189.588C326.445 184.922 319.29 182.475 310.139 182.475C297.216 182.475 289.292 189.663 289.292 199.605V199.759C289.292 210.774 298.14 213.986 309.601 216.584C316.911 218.268 318.68 219.492 318.68 221.71V221.864C318.68 224.157 316.525 225.536 312.525 225.536C306.295 225.536 300.371 223.318 295.06 219.111L286.754 228.978C293.371 234.867 302.446 237.85 311.987 237.85C325.066 237.85 333.759 231.35 333.759 220.41V220.256C333.759 210.235 326.066 206.259 313.681 203.581L313.677 203.585Z" fill="white"/>
<path d="M131.283 183.009L108.357 236.931H124.053L127.897 227.369L132.283 215.82L138.359 200.599L144.362 215.82L148.669 227.369L152.593 236.931H168.591L145.669 183.009H131.283Z" fill="white"/>
<path d="M335 182.06H55V175.494H335V182.06Z" fill="#00AF86"/>
</g>
</g>
<defs>
<clipPath id="clip0_3_8">
<rect width="390" height="844" fill="white"/>
</clipPath>
</defs>
</svg>
