<svg width="279" height="149" viewBox="0 0 279 149" fill="none" xmlns="http://www.w3.org/2000/svg">
<path d="M33.654 146V137.796H30.532V136.2H38.498V137.796H35.376V146H33.654ZM39.9641 146V135.78H41.6721V139.742C42.1621 139.056 42.8201 138.454 43.9821 138.454C45.662 138.454 46.614 139.56 46.614 141.282V146H44.9201V141.8C44.9201 140.638 44.3461 139.994 43.3381 139.994C42.3441 139.994 41.6721 140.666 41.6721 141.828V146H39.9641ZM52.048 146.168C49.92 146.168 48.254 144.614 48.254 142.332V142.304C48.254 140.176 49.752 138.454 51.866 138.454C54.218 138.454 55.408 140.302 55.408 142.43C55.408 142.584 55.394 142.738 55.38 142.906H49.948C50.13 144.124 50.97 144.782 52.076 144.782C52.916 144.782 53.476 144.474 54.078 143.9L55.072 144.782C54.358 145.622 53.406 146.168 52.048 146.168ZM49.934 141.786H53.728C53.616 140.708 52.972 139.84 51.852 139.84C50.802 139.84 50.088 140.624 49.934 141.786ZM63.854 146.154C62.174 146.154 61.222 145.048 61.222 143.312V138.608H62.916V142.808C62.916 143.97 63.49 144.6 64.498 144.6C65.492 144.6 66.164 143.942 66.164 142.78V138.608H67.872V146H66.164V144.852C65.674 145.566 64.988 146.154 63.854 146.154ZM70.072 146V135.78H71.78V146H70.072ZM76.472 146.126C75.226 146.126 74.344 145.58 74.344 143.956V140.064H73.406V138.608H74.344V136.578H76.038V138.608H78.026V140.064H76.038V143.69C76.038 144.348 76.374 144.614 76.948 144.614C77.312 144.614 77.662 144.53 77.998 144.362V145.748C77.564 145.986 77.13 146.126 76.472 146.126ZM79.778 137.474V135.864H81.598V137.474H79.778ZM79.834 146V138.608H81.542V146H79.834ZM83.741 146V138.608H85.449V139.728C85.925 139.07 86.569 138.454 87.703 138.454C88.767 138.454 89.523 138.972 89.915 139.756C90.517 138.972 91.287 138.454 92.407 138.454C94.031 138.454 94.997 139.476 94.997 141.282V146H93.303V141.8C93.303 140.624 92.757 139.994 91.805 139.994C90.867 139.994 90.223 140.638 90.223 141.828V146H88.529V141.786C88.529 140.624 87.983 139.994 87.031 139.994C86.079 139.994 85.449 140.694 85.449 141.828V146H83.741ZM99.172 146.154C97.786 146.154 96.54 145.37 96.54 143.872V143.844C96.54 142.234 97.8 141.464 99.606 141.464C100.446 141.464 101.02 141.59 101.594 141.772V141.59C101.594 140.526 100.95 139.98 99.76 139.98C98.92 139.98 98.318 140.162 97.646 140.442L97.184 139.112C98.01 138.762 98.808 138.51 99.984 138.51C101.09 138.51 101.902 138.79 102.434 139.336C102.98 139.882 103.232 140.652 103.232 141.618V146H101.58V145.076C101.076 145.678 100.306 146.154 99.172 146.154ZM99.648 144.922C100.768 144.922 101.622 144.292 101.622 143.34V142.836C101.188 142.668 100.614 142.542 99.942 142.542C98.836 142.542 98.206 142.99 98.206 143.774V143.802C98.206 144.516 98.822 144.922 99.648 144.922ZM107.671 146.126C106.425 146.126 105.543 145.58 105.543 143.956V140.064H104.605V138.608H105.543V136.578H107.237V138.608H109.225V140.064H107.237V143.69C107.237 144.348 107.573 144.614 108.147 144.614C108.511 144.614 108.861 144.53 109.197 144.362V145.748C108.763 145.986 108.329 146.126 107.671 146.126ZM114.132 146.168C112.004 146.168 110.338 144.614 110.338 142.332V142.304C110.338 140.176 111.836 138.454 113.95 138.454C116.302 138.454 117.492 140.302 117.492 142.43C117.492 142.584 117.478 142.738 117.464 142.906H112.032C112.214 144.124 113.054 144.782 114.16 144.782C115 144.782 115.56 144.474 116.162 143.9L117.156 144.782C116.442 145.622 115.49 146.168 114.132 146.168ZM112.018 141.786H115.812C115.7 140.708 115.056 139.84 113.936 139.84C112.886 139.84 112.172 140.624 112.018 141.786ZM125.868 146.126C124.622 146.126 123.74 145.58 123.74 143.956V140.064H122.802V138.608H123.74V136.578H125.434V138.608H127.422V140.064H125.434V143.69C125.434 144.348 125.77 144.614 126.344 144.614C126.708 144.614 127.058 144.53 127.394 144.362V145.748C126.96 145.986 126.526 146.126 125.868 146.126ZM129.132 146V138.608H130.84V140.274C131.302 139.154 132.156 138.412 133.458 138.468V140.26H133.36C131.862 140.26 130.84 141.226 130.84 143.186V146H129.132ZM136.702 146.154C135.316 146.154 134.07 145.37 134.07 143.872V143.844C134.07 142.234 135.33 141.464 137.136 141.464C137.976 141.464 138.55 141.59 139.124 141.772V141.59C139.124 140.526 138.48 139.98 137.29 139.98C136.45 139.98 135.848 140.162 135.176 140.442L134.714 139.112C135.54 138.762 136.338 138.51 137.514 138.51C138.62 138.51 139.432 138.79 139.964 139.336C140.51 139.882 140.762 140.652 140.762 141.618V146H139.11V145.076C138.606 145.678 137.836 146.154 136.702 146.154ZM137.178 144.922C138.298 144.922 139.152 144.292 139.152 143.34V142.836C138.718 142.668 138.144 142.542 137.472 142.542C136.366 142.542 135.736 142.99 135.736 143.774V143.802C135.736 144.516 136.352 144.922 137.178 144.922ZM144.855 146.056L141.817 138.608H143.637L145.625 144.04L147.627 138.608H149.405L146.381 146.056H144.855ZM153.807 146.168C151.679 146.168 150.013 144.614 150.013 142.332V142.304C150.013 140.176 151.511 138.454 153.625 138.454C155.977 138.454 157.167 140.302 157.167 142.43C157.167 142.584 157.153 142.738 157.139 142.906H151.707C151.889 144.124 152.729 144.782 153.835 144.782C154.675 144.782 155.235 144.474 155.837 143.9L156.831 144.782C156.117 145.622 155.165 146.168 153.807 146.168ZM151.693 141.786H155.487C155.375 140.708 154.731 139.84 153.611 139.84C152.561 139.84 151.847 140.624 151.693 141.786ZM158.953 146V135.78H160.661V146H158.953ZM170.488 146.168C168.29 146.168 166.666 144.446 166.666 142.346V142.318C166.666 140.218 168.29 138.454 170.516 138.454C171.902 138.454 172.756 138.972 173.47 139.728L172.406 140.862C171.888 140.316 171.342 139.938 170.502 139.938C169.27 139.938 168.36 141.002 168.36 142.29V142.318C168.36 143.634 169.27 144.684 170.572 144.684C171.37 144.684 171.944 144.32 172.49 143.774L173.512 144.782C172.784 145.608 171.93 146.168 170.488 146.168ZM178.379 146.168C176.125 146.168 174.459 144.446 174.459 142.346V142.318C174.459 140.204 176.139 138.454 178.407 138.454C180.689 138.454 182.341 140.176 182.341 142.29V142.318C182.341 144.404 180.661 146.168 178.379 146.168ZM178.407 144.684C179.793 144.684 180.647 143.62 180.647 142.346V142.318C180.647 141.016 179.709 139.938 178.379 139.938C177.021 139.938 176.153 141.002 176.153 142.29V142.318C176.153 143.606 177.105 144.684 178.407 144.684ZM184.052 146V138.608H185.76V139.728C186.236 139.07 186.88 138.454 188.014 138.454C189.078 138.454 189.834 138.972 190.226 139.756C190.828 138.972 191.598 138.454 192.718 138.454C194.342 138.454 195.308 139.476 195.308 141.282V146H193.614V141.8C193.614 140.624 193.068 139.994 192.116 139.994C191.178 139.994 190.534 140.638 190.534 141.828V146H188.84V141.786C188.84 140.624 188.294 139.994 187.342 139.994C186.39 139.994 185.76 140.694 185.76 141.828V146H184.052ZM197.341 148.24V138.608H199.049V139.84C199.595 139.07 200.351 138.454 201.569 138.454C203.305 138.454 204.999 139.826 204.999 142.29V142.318C204.999 144.782 203.319 146.154 201.569 146.154C200.337 146.154 199.567 145.538 199.049 144.852V148.24H197.341ZM201.163 144.684C202.325 144.684 203.277 143.774 203.277 142.318V142.29C203.277 140.862 202.297 139.924 201.163 139.924C200.001 139.924 199.007 140.876 199.007 142.29V142.318C199.007 143.732 200.001 144.684 201.163 144.684ZM208.876 146.154C207.49 146.154 206.244 145.37 206.244 143.872V143.844C206.244 142.234 207.504 141.464 209.31 141.464C210.15 141.464 210.724 141.59 211.298 141.772V141.59C211.298 140.526 210.654 139.98 209.464 139.98C208.624 139.98 208.022 140.162 207.35 140.442L206.888 139.112C207.714 138.762 208.512 138.51 209.688 138.51C210.794 138.51 211.606 138.79 212.138 139.336C212.684 139.882 212.936 140.652 212.936 141.618V146H211.284V145.076C210.78 145.678 210.01 146.154 208.876 146.154ZM209.352 144.922C210.472 144.922 211.326 144.292 211.326 143.34V142.836C210.892 142.668 210.318 142.542 209.646 142.542C208.54 142.542 207.91 142.99 207.91 143.774V143.802C207.91 144.516 208.526 144.922 209.352 144.922ZM214.95 146V138.608H216.658V139.742C217.148 139.056 217.806 138.454 218.968 138.454C220.648 138.454 221.6 139.56 221.6 141.282V146H219.906V141.8C219.906 140.638 219.332 139.994 218.324 139.994C217.33 139.994 216.658 140.666 216.658 141.828V146H214.95ZM223.674 137.474V135.864H225.494V137.474H223.674ZM223.73 146V138.608H225.438V146H223.73ZM231.166 146.168C228.912 146.168 227.246 144.446 227.246 142.346V142.318C227.246 140.204 228.926 138.454 231.194 138.454C233.476 138.454 235.128 140.176 235.128 142.29V142.318C235.128 144.404 233.448 146.168 231.166 146.168ZM231.194 144.684C232.58 144.684 233.434 143.62 233.434 142.346V142.318C233.434 141.016 232.496 139.938 231.166 139.938C229.808 139.938 228.94 141.002 228.94 142.29V142.318C228.94 143.606 229.892 144.684 231.194 144.684ZM236.839 146V138.608H238.547V139.742C239.037 139.056 239.695 138.454 240.857 138.454C242.537 138.454 243.489 139.56 243.489 141.282V146H241.795V141.8C241.795 140.638 241.221 139.994 240.213 139.994C239.219 139.994 238.547 140.666 238.547 141.828V146H236.839Z" fill="#F9FBFA"/>
<path d="M78.132 54.076L88.904 23.253L99.752 54.076H112.751L130.753 0.153999H115.288L105.903 31.127L95.517 0H82.673L72.287 31.127L62.902 0.153999H47.13L65.133 54.076H78.132Z" fill="white"/>
<path d="M151.979 0.154999H136.98V53.692H151.979V0.154999Z" fill="white"/>
<path d="M212.138 53.692L191.06 23.174L211.449 0.154999H193.753L175.212 21.875V0.154999H160.289V53.692H175.212V39.849L180.678 33.805L194.215 53.692H212.138Z" fill="white"/>
<path d="M231.758 0.154999H216.755V53.692H231.758V0.154999Z" fill="white"/>
<path d="M28.3664 103.462C20.8291 103.462 15.5187 97.192 15.5187 89.16V89.006C15.5187 81.203 20.8291 74.858 28.3664 74.858C33.5214 74.858 37.059 77.306 40.1345 81.128L51.365 72.485C46.596 65.907 39.517 61.32 28.5178 61.32C12.2082 61.32 0.129395 73.559 0.129395 89.16V89.315C0.129395 105.3 12.515 117 27.9003 117C39.8237 117 46.672 111.875 51.747 104.916L40.5169 96.963C37.2861 100.864 33.9795 103.462 28.3624 103.462H28.3664Z" fill="white"/>
<path d="M147.441 83.12L134.594 62.389H118.822V115.931H133.438V85.338L147.131 106.14H147.441L161.209 85.183V115.931H176.057V62.389H160.289L147.441 83.12Z" fill="white"/>
<path d="M207.134 62.389H184.056V115.927H198.98V100.63H206.366C219.751 100.63 229.519 93.976 229.519 81.357V81.203C229.519 69.348 220.751 62.389 207.134 62.389ZM214.596 82.047C214.596 86.253 211.365 89.006 206.059 89.006H198.98V74.858H205.979C211.365 74.858 214.596 77.306 214.596 81.892V82.047Z" fill="white"/>
<path d="M258.677 82.585C251.215 80.902 249.366 79.833 249.366 77.385V77.23C249.366 75.317 251.135 73.789 254.752 73.789C259.521 73.789 264.907 75.622 269.831 79.064L277.293 68.588C271.445 63.922 264.29 61.475 255.139 61.475C242.216 61.475 234.292 68.663 234.292 78.605V78.759C234.292 89.774 243.14 92.986 254.601 95.584C261.911 97.268 263.68 98.492 263.68 100.71V100.864C263.68 103.157 261.525 104.536 257.525 104.536C251.295 104.536 245.371 102.318 240.06 98.111L231.754 107.978C238.371 113.867 247.446 116.85 256.987 116.85C270.066 116.85 278.759 110.35 278.759 99.41V99.256C278.759 89.235 271.066 85.259 258.681 82.581L258.677 82.585Z" fill="white"/>
<path d="M76.283 62.009L53.357 115.931H69.053L72.897 106.369L77.283 94.82L83.359 79.599L89.362 94.82L93.669 106.369L97.593 115.931H113.591L90.669 62.009H76.283Z" fill="white"/>
</svg>
